<mxfile host="app.diagrams.net" modified="2024-04-17T21:56:51.773Z" agent="Mozilla/5.0 (X11; Linux x86_64) AppleWebKit/537.36 (KHTML, like Gecko) Chrome/114.0.0.0 Safari/537.36 Edg/114.0.1823.82" version="24.2.5" etag="jvLf97D_jm7DRp5Z1meU" type="device" pages="3">
  <diagram id="08-VA6RYstbvQDr7Ir3e" name="Page-1">
    <mxGraphModel dx="980" dy="572" grid="1" gridSize="10" guides="1" tooltips="1" connect="1" arrows="1" fold="1" page="1" pageScale="1" pageWidth="827" pageHeight="1169" math="0" shadow="0">
      <root>
        <mxCell id="0" />
        <mxCell id="1" parent="0" />
        <mxCell id="sdJiQs91NN_QDDQ3qVLd-1" value="&lt;h1 style=&quot;margin-top: 0px;&quot;&gt;two&#39;s complement&lt;/h1&gt;&lt;p&gt;Diagrams show how to represent two&#39;s complement with an example of -6&lt;/p&gt;" style="text;html=1;whiteSpace=wrap;overflow=hidden;rounded=0;" vertex="1" parent="1">
          <mxGeometry x="10" y="10" width="230" height="90" as="geometry" />
        </mxCell>
        <mxCell id="sdJiQs91NN_QDDQ3qVLd-2" value="0" style="rounded=0;whiteSpace=wrap;html=1;" vertex="1" parent="1">
          <mxGeometry x="607" y="180" width="30" height="40" as="geometry" />
        </mxCell>
        <mxCell id="sdJiQs91NN_QDDQ3qVLd-3" value="0" style="text;html=1;align=center;verticalAlign=middle;whiteSpace=wrap;rounded=0;" vertex="1" parent="1">
          <mxGeometry x="607" y="240" width="32.5" height="30" as="geometry" />
        </mxCell>
        <mxCell id="sdJiQs91NN_QDDQ3qVLd-6" value="1" style="rounded=0;whiteSpace=wrap;html=1;" vertex="1" parent="1">
          <mxGeometry x="557" y="180" width="30" height="40" as="geometry" />
        </mxCell>
        <mxCell id="sdJiQs91NN_QDDQ3qVLd-7" value="1" style="text;html=1;align=center;verticalAlign=middle;whiteSpace=wrap;rounded=0;" vertex="1" parent="1">
          <mxGeometry x="557" y="240" width="32.5" height="30" as="geometry" />
        </mxCell>
        <mxCell id="sdJiQs91NN_QDDQ3qVLd-10" value="1" style="rounded=0;whiteSpace=wrap;html=1;" vertex="1" parent="1">
          <mxGeometry x="507" y="180" width="30" height="40" as="geometry" />
        </mxCell>
        <mxCell id="sdJiQs91NN_QDDQ3qVLd-11" value="2" style="text;html=1;align=center;verticalAlign=middle;whiteSpace=wrap;rounded=0;" vertex="1" parent="1">
          <mxGeometry x="507" y="240" width="32.5" height="30" as="geometry" />
        </mxCell>
        <mxCell id="sdJiQs91NN_QDDQ3qVLd-12" value="0" style="rounded=0;whiteSpace=wrap;html=1;" vertex="1" parent="1">
          <mxGeometry x="457" y="180" width="30" height="40" as="geometry" />
        </mxCell>
        <mxCell id="sdJiQs91NN_QDDQ3qVLd-13" value="3" style="text;html=1;align=center;verticalAlign=middle;whiteSpace=wrap;rounded=0;" vertex="1" parent="1">
          <mxGeometry x="457" y="240" width="32.5" height="30" as="geometry" />
        </mxCell>
        <mxCell id="sdJiQs91NN_QDDQ3qVLd-14" value="0" style="rounded=0;whiteSpace=wrap;html=1;" vertex="1" parent="1">
          <mxGeometry x="407" y="180" width="30" height="40" as="geometry" />
        </mxCell>
        <mxCell id="sdJiQs91NN_QDDQ3qVLd-15" value="4" style="text;html=1;align=center;verticalAlign=middle;whiteSpace=wrap;rounded=0;" vertex="1" parent="1">
          <mxGeometry x="407" y="240" width="32.5" height="30" as="geometry" />
        </mxCell>
        <mxCell id="sdJiQs91NN_QDDQ3qVLd-16" value="0" style="rounded=0;whiteSpace=wrap;html=1;" vertex="1" parent="1">
          <mxGeometry x="357" y="180" width="30" height="40" as="geometry" />
        </mxCell>
        <mxCell id="sdJiQs91NN_QDDQ3qVLd-17" value="5" style="text;html=1;align=center;verticalAlign=middle;whiteSpace=wrap;rounded=0;" vertex="1" parent="1">
          <mxGeometry x="357" y="240" width="32.5" height="30" as="geometry" />
        </mxCell>
        <mxCell id="sdJiQs91NN_QDDQ3qVLd-18" value="0" style="rounded=0;whiteSpace=wrap;html=1;" vertex="1" parent="1">
          <mxGeometry x="307" y="180" width="30" height="40" as="geometry" />
        </mxCell>
        <mxCell id="sdJiQs91NN_QDDQ3qVLd-19" value="6" style="text;html=1;align=center;verticalAlign=middle;whiteSpace=wrap;rounded=0;" vertex="1" parent="1">
          <mxGeometry x="307" y="240" width="32.5" height="30" as="geometry" />
        </mxCell>
        <mxCell id="sdJiQs91NN_QDDQ3qVLd-20" value="0" style="rounded=0;whiteSpace=wrap;html=1;fillColor=#d5e8d4;strokeColor=#82b366;" vertex="1" parent="1">
          <mxGeometry x="257" y="180" width="30" height="40" as="geometry" />
        </mxCell>
        <mxCell id="sdJiQs91NN_QDDQ3qVLd-21" value="7" style="text;html=1;align=center;verticalAlign=middle;whiteSpace=wrap;rounded=0;" vertex="1" parent="1">
          <mxGeometry x="257" y="240" width="32.5" height="30" as="geometry" />
        </mxCell>
        <mxCell id="sdJiQs91NN_QDDQ3qVLd-22" value="" style="rounded=0;whiteSpace=wrap;html=1;fillColor=#f8cecc;strokeColor=#b85450;" vertex="1" parent="1">
          <mxGeometry x="187" y="180" width="30" height="40" as="geometry" />
        </mxCell>
        <mxCell id="sdJiQs91NN_QDDQ3qVLd-23" value="overflow" style="text;html=1;align=center;verticalAlign=middle;whiteSpace=wrap;rounded=0;" vertex="1" parent="1">
          <mxGeometry x="187" y="240" width="32.5" height="30" as="geometry" />
        </mxCell>
        <mxCell id="sdJiQs91NN_QDDQ3qVLd-24" value="" style="endArrow=none;dashed=1;html=1;dashPattern=1 3;strokeWidth=2;rounded=0;" edge="1" parent="1">
          <mxGeometry width="50" height="50" relative="1" as="geometry">
            <mxPoint x="237" y="480" as="sourcePoint" />
            <mxPoint x="237" y="140" as="targetPoint" />
          </mxGeometry>
        </mxCell>
        <mxCell id="sdJiQs91NN_QDDQ3qVLd-25" value="1" style="rounded=0;whiteSpace=wrap;html=1;" vertex="1" parent="1">
          <mxGeometry x="605.5" y="280" width="30" height="40" as="geometry" />
        </mxCell>
        <mxCell id="sdJiQs91NN_QDDQ3qVLd-26" value="0" style="text;html=1;align=center;verticalAlign=middle;whiteSpace=wrap;rounded=0;" vertex="1" parent="1">
          <mxGeometry x="605.5" y="340" width="32.5" height="30" as="geometry" />
        </mxCell>
        <mxCell id="sdJiQs91NN_QDDQ3qVLd-27" value="0" style="rounded=0;whiteSpace=wrap;html=1;" vertex="1" parent="1">
          <mxGeometry x="555.5" y="280" width="30" height="40" as="geometry" />
        </mxCell>
        <mxCell id="sdJiQs91NN_QDDQ3qVLd-28" value="1" style="text;html=1;align=center;verticalAlign=middle;whiteSpace=wrap;rounded=0;" vertex="1" parent="1">
          <mxGeometry x="555.5" y="340" width="32.5" height="30" as="geometry" />
        </mxCell>
        <mxCell id="sdJiQs91NN_QDDQ3qVLd-29" value="0" style="rounded=0;whiteSpace=wrap;html=1;" vertex="1" parent="1">
          <mxGeometry x="505.5" y="280" width="30" height="40" as="geometry" />
        </mxCell>
        <mxCell id="sdJiQs91NN_QDDQ3qVLd-30" value="2" style="text;html=1;align=center;verticalAlign=middle;whiteSpace=wrap;rounded=0;" vertex="1" parent="1">
          <mxGeometry x="505.5" y="340" width="32.5" height="30" as="geometry" />
        </mxCell>
        <mxCell id="sdJiQs91NN_QDDQ3qVLd-31" value="1" style="rounded=0;whiteSpace=wrap;html=1;" vertex="1" parent="1">
          <mxGeometry x="455.5" y="280" width="30" height="40" as="geometry" />
        </mxCell>
        <mxCell id="sdJiQs91NN_QDDQ3qVLd-32" value="3" style="text;html=1;align=center;verticalAlign=middle;whiteSpace=wrap;rounded=0;" vertex="1" parent="1">
          <mxGeometry x="455.5" y="340" width="32.5" height="30" as="geometry" />
        </mxCell>
        <mxCell id="sdJiQs91NN_QDDQ3qVLd-33" value="1" style="rounded=0;whiteSpace=wrap;html=1;" vertex="1" parent="1">
          <mxGeometry x="405.5" y="280" width="30" height="40" as="geometry" />
        </mxCell>
        <mxCell id="sdJiQs91NN_QDDQ3qVLd-34" value="4" style="text;html=1;align=center;verticalAlign=middle;whiteSpace=wrap;rounded=0;" vertex="1" parent="1">
          <mxGeometry x="405.5" y="340" width="32.5" height="30" as="geometry" />
        </mxCell>
        <mxCell id="sdJiQs91NN_QDDQ3qVLd-35" value="1" style="rounded=0;whiteSpace=wrap;html=1;" vertex="1" parent="1">
          <mxGeometry x="355.5" y="280" width="30" height="40" as="geometry" />
        </mxCell>
        <mxCell id="sdJiQs91NN_QDDQ3qVLd-36" value="5" style="text;html=1;align=center;verticalAlign=middle;whiteSpace=wrap;rounded=0;" vertex="1" parent="1">
          <mxGeometry x="355.5" y="340" width="32.5" height="30" as="geometry" />
        </mxCell>
        <mxCell id="sdJiQs91NN_QDDQ3qVLd-37" value="1" style="rounded=0;whiteSpace=wrap;html=1;" vertex="1" parent="1">
          <mxGeometry x="305.5" y="280" width="30" height="40" as="geometry" />
        </mxCell>
        <mxCell id="sdJiQs91NN_QDDQ3qVLd-38" value="6" style="text;html=1;align=center;verticalAlign=middle;whiteSpace=wrap;rounded=0;" vertex="1" parent="1">
          <mxGeometry x="305.5" y="340" width="32.5" height="30" as="geometry" />
        </mxCell>
        <mxCell id="sdJiQs91NN_QDDQ3qVLd-39" value="1" style="rounded=0;whiteSpace=wrap;html=1;fillColor=#d5e8d4;strokeColor=#82b366;" vertex="1" parent="1">
          <mxGeometry x="255.5" y="280" width="30" height="40" as="geometry" />
        </mxCell>
        <mxCell id="sdJiQs91NN_QDDQ3qVLd-40" value="7" style="text;html=1;align=center;verticalAlign=middle;whiteSpace=wrap;rounded=0;" vertex="1" parent="1">
          <mxGeometry x="255.5" y="340" width="32.5" height="30" as="geometry" />
        </mxCell>
        <mxCell id="sdJiQs91NN_QDDQ3qVLd-41" value="" style="rounded=0;whiteSpace=wrap;html=1;fillColor=#f8cecc;strokeColor=#b85450;" vertex="1" parent="1">
          <mxGeometry x="185.5" y="280" width="30" height="40" as="geometry" />
        </mxCell>
        <mxCell id="sdJiQs91NN_QDDQ3qVLd-42" value="overflow" style="text;html=1;align=center;verticalAlign=middle;whiteSpace=wrap;rounded=0;" vertex="1" parent="1">
          <mxGeometry x="185.5" y="340" width="32.5" height="30" as="geometry" />
        </mxCell>
        <mxCell id="sdJiQs91NN_QDDQ3qVLd-43" value="The binary representation of signed number 6, red is the over flow bit, whereas the green is the signed bit" style="text;html=1;align=center;verticalAlign=middle;whiteSpace=wrap;rounded=0;" vertex="1" parent="1">
          <mxGeometry x="10" y="170" width="140" height="80" as="geometry" />
        </mxCell>
        <mxCell id="sdJiQs91NN_QDDQ3qVLd-44" value="Inverting all the bits" style="text;html=1;align=center;verticalAlign=middle;whiteSpace=wrap;rounded=0;" vertex="1" parent="1">
          <mxGeometry x="8.5" y="270" width="140" height="80" as="geometry" />
        </mxCell>
        <mxCell id="sdJiQs91NN_QDDQ3qVLd-45" value="0" style="rounded=0;whiteSpace=wrap;html=1;" vertex="1" parent="1">
          <mxGeometry x="603" y="380" width="30" height="40" as="geometry" />
        </mxCell>
        <mxCell id="sdJiQs91NN_QDDQ3qVLd-46" value="0" style="text;html=1;align=center;verticalAlign=middle;whiteSpace=wrap;rounded=0;" vertex="1" parent="1">
          <mxGeometry x="603" y="440" width="32.5" height="30" as="geometry" />
        </mxCell>
        <mxCell id="sdJiQs91NN_QDDQ3qVLd-47" value="1" style="rounded=0;whiteSpace=wrap;html=1;" vertex="1" parent="1">
          <mxGeometry x="553" y="380" width="30" height="40" as="geometry" />
        </mxCell>
        <mxCell id="sdJiQs91NN_QDDQ3qVLd-48" value="1" style="text;html=1;align=center;verticalAlign=middle;whiteSpace=wrap;rounded=0;" vertex="1" parent="1">
          <mxGeometry x="553" y="440" width="32.5" height="30" as="geometry" />
        </mxCell>
        <mxCell id="sdJiQs91NN_QDDQ3qVLd-49" value="0" style="rounded=0;whiteSpace=wrap;html=1;" vertex="1" parent="1">
          <mxGeometry x="503" y="380" width="30" height="40" as="geometry" />
        </mxCell>
        <mxCell id="sdJiQs91NN_QDDQ3qVLd-50" value="2" style="text;html=1;align=center;verticalAlign=middle;whiteSpace=wrap;rounded=0;" vertex="1" parent="1">
          <mxGeometry x="503" y="440" width="32.5" height="30" as="geometry" />
        </mxCell>
        <mxCell id="sdJiQs91NN_QDDQ3qVLd-51" value="1" style="rounded=0;whiteSpace=wrap;html=1;" vertex="1" parent="1">
          <mxGeometry x="453" y="380" width="30" height="40" as="geometry" />
        </mxCell>
        <mxCell id="sdJiQs91NN_QDDQ3qVLd-52" value="3" style="text;html=1;align=center;verticalAlign=middle;whiteSpace=wrap;rounded=0;" vertex="1" parent="1">
          <mxGeometry x="453" y="440" width="32.5" height="30" as="geometry" />
        </mxCell>
        <mxCell id="sdJiQs91NN_QDDQ3qVLd-53" value="1" style="rounded=0;whiteSpace=wrap;html=1;" vertex="1" parent="1">
          <mxGeometry x="403" y="380" width="30" height="40" as="geometry" />
        </mxCell>
        <mxCell id="sdJiQs91NN_QDDQ3qVLd-54" value="4" style="text;html=1;align=center;verticalAlign=middle;whiteSpace=wrap;rounded=0;" vertex="1" parent="1">
          <mxGeometry x="403" y="440" width="32.5" height="30" as="geometry" />
        </mxCell>
        <mxCell id="sdJiQs91NN_QDDQ3qVLd-55" value="1" style="rounded=0;whiteSpace=wrap;html=1;" vertex="1" parent="1">
          <mxGeometry x="353" y="380" width="30" height="40" as="geometry" />
        </mxCell>
        <mxCell id="sdJiQs91NN_QDDQ3qVLd-56" value="5" style="text;html=1;align=center;verticalAlign=middle;whiteSpace=wrap;rounded=0;" vertex="1" parent="1">
          <mxGeometry x="353" y="440" width="32.5" height="30" as="geometry" />
        </mxCell>
        <mxCell id="sdJiQs91NN_QDDQ3qVLd-57" value="1" style="rounded=0;whiteSpace=wrap;html=1;" vertex="1" parent="1">
          <mxGeometry x="303" y="380" width="30" height="40" as="geometry" />
        </mxCell>
        <mxCell id="sdJiQs91NN_QDDQ3qVLd-58" value="6" style="text;html=1;align=center;verticalAlign=middle;whiteSpace=wrap;rounded=0;" vertex="1" parent="1">
          <mxGeometry x="303" y="440" width="32.5" height="30" as="geometry" />
        </mxCell>
        <mxCell id="sdJiQs91NN_QDDQ3qVLd-59" value="1" style="rounded=0;whiteSpace=wrap;html=1;fillColor=#d5e8d4;strokeColor=#82b366;" vertex="1" parent="1">
          <mxGeometry x="253" y="380" width="30" height="40" as="geometry" />
        </mxCell>
        <mxCell id="sdJiQs91NN_QDDQ3qVLd-60" value="7" style="text;html=1;align=center;verticalAlign=middle;whiteSpace=wrap;rounded=0;" vertex="1" parent="1">
          <mxGeometry x="253" y="440" width="32.5" height="30" as="geometry" />
        </mxCell>
        <mxCell id="sdJiQs91NN_QDDQ3qVLd-61" value="" style="rounded=0;whiteSpace=wrap;html=1;fillColor=#f8cecc;strokeColor=#b85450;" vertex="1" parent="1">
          <mxGeometry x="183" y="380" width="30" height="40" as="geometry" />
        </mxCell>
        <mxCell id="sdJiQs91NN_QDDQ3qVLd-62" value="overflow" style="text;html=1;align=center;verticalAlign=middle;whiteSpace=wrap;rounded=0;" vertex="1" parent="1">
          <mxGeometry x="183" y="440" width="32.5" height="30" as="geometry" />
        </mxCell>
        <mxCell id="sdJiQs91NN_QDDQ3qVLd-63" value="Adding 1 to the entire inverted number, ignore the overflow bit" style="text;html=1;align=center;verticalAlign=middle;whiteSpace=wrap;rounded=0;" vertex="1" parent="1">
          <mxGeometry x="6" y="370" width="140" height="80" as="geometry" />
        </mxCell>
      </root>
    </mxGraphModel>
  </diagram>
  <diagram id="khWB0Ifp_EbGWMe70yuN" name="Page-2">
    <mxGraphModel dx="1176" dy="686" grid="1" gridSize="10" guides="1" tooltips="1" connect="1" arrows="1" fold="1" page="1" pageScale="1" pageWidth="827" pageHeight="1169" math="0" shadow="0">
      <root>
        <mxCell id="0" />
        <mxCell id="1" parent="0" />
        <mxCell id="iPJmf6RAAdfrQKnkn_MT-1" value="&lt;h1 style=&quot;margin-top: 0px;&quot;&gt;two&#39;s complement&lt;/h1&gt;&lt;p&gt;Diagrams show how to represent two&#39;s complement with an example of -6 and then perform addition to do substration&lt;/p&gt;" style="text;html=1;whiteSpace=wrap;overflow=hidden;rounded=0;" vertex="1" parent="1">
          <mxGeometry x="10" y="20" width="230" height="100" as="geometry" />
        </mxCell>
        <mxCell id="iPJmf6RAAdfrQKnkn_MT-2" value="0" style="rounded=0;whiteSpace=wrap;html=1;" vertex="1" parent="1">
          <mxGeometry x="607" y="180" width="30" height="40" as="geometry" />
        </mxCell>
        <mxCell id="iPJmf6RAAdfrQKnkn_MT-3" value="0" style="text;html=1;align=center;verticalAlign=middle;whiteSpace=wrap;rounded=0;" vertex="1" parent="1">
          <mxGeometry x="607" y="240" width="32.5" height="30" as="geometry" />
        </mxCell>
        <mxCell id="iPJmf6RAAdfrQKnkn_MT-4" value="1" style="rounded=0;whiteSpace=wrap;html=1;" vertex="1" parent="1">
          <mxGeometry x="557" y="180" width="30" height="40" as="geometry" />
        </mxCell>
        <mxCell id="iPJmf6RAAdfrQKnkn_MT-5" value="1" style="text;html=1;align=center;verticalAlign=middle;whiteSpace=wrap;rounded=0;" vertex="1" parent="1">
          <mxGeometry x="557" y="240" width="32.5" height="30" as="geometry" />
        </mxCell>
        <mxCell id="iPJmf6RAAdfrQKnkn_MT-6" value="1" style="rounded=0;whiteSpace=wrap;html=1;" vertex="1" parent="1">
          <mxGeometry x="507" y="180" width="30" height="40" as="geometry" />
        </mxCell>
        <mxCell id="iPJmf6RAAdfrQKnkn_MT-7" value="2" style="text;html=1;align=center;verticalAlign=middle;whiteSpace=wrap;rounded=0;" vertex="1" parent="1">
          <mxGeometry x="507" y="240" width="32.5" height="30" as="geometry" />
        </mxCell>
        <mxCell id="iPJmf6RAAdfrQKnkn_MT-8" value="0" style="rounded=0;whiteSpace=wrap;html=1;" vertex="1" parent="1">
          <mxGeometry x="457" y="180" width="30" height="40" as="geometry" />
        </mxCell>
        <mxCell id="iPJmf6RAAdfrQKnkn_MT-9" value="3" style="text;html=1;align=center;verticalAlign=middle;whiteSpace=wrap;rounded=0;" vertex="1" parent="1">
          <mxGeometry x="457" y="240" width="32.5" height="30" as="geometry" />
        </mxCell>
        <mxCell id="iPJmf6RAAdfrQKnkn_MT-10" value="0" style="rounded=0;whiteSpace=wrap;html=1;" vertex="1" parent="1">
          <mxGeometry x="407" y="180" width="30" height="40" as="geometry" />
        </mxCell>
        <mxCell id="iPJmf6RAAdfrQKnkn_MT-11" value="4" style="text;html=1;align=center;verticalAlign=middle;whiteSpace=wrap;rounded=0;" vertex="1" parent="1">
          <mxGeometry x="407" y="240" width="32.5" height="30" as="geometry" />
        </mxCell>
        <mxCell id="iPJmf6RAAdfrQKnkn_MT-12" value="0" style="rounded=0;whiteSpace=wrap;html=1;" vertex="1" parent="1">
          <mxGeometry x="357" y="180" width="30" height="40" as="geometry" />
        </mxCell>
        <mxCell id="iPJmf6RAAdfrQKnkn_MT-13" value="5" style="text;html=1;align=center;verticalAlign=middle;whiteSpace=wrap;rounded=0;" vertex="1" parent="1">
          <mxGeometry x="357" y="240" width="32.5" height="30" as="geometry" />
        </mxCell>
        <mxCell id="iPJmf6RAAdfrQKnkn_MT-14" value="0" style="rounded=0;whiteSpace=wrap;html=1;" vertex="1" parent="1">
          <mxGeometry x="307" y="180" width="30" height="40" as="geometry" />
        </mxCell>
        <mxCell id="iPJmf6RAAdfrQKnkn_MT-15" value="6" style="text;html=1;align=center;verticalAlign=middle;whiteSpace=wrap;rounded=0;" vertex="1" parent="1">
          <mxGeometry x="307" y="240" width="32.5" height="30" as="geometry" />
        </mxCell>
        <mxCell id="iPJmf6RAAdfrQKnkn_MT-16" value="0" style="rounded=0;whiteSpace=wrap;html=1;fillColor=#d5e8d4;strokeColor=#82b366;" vertex="1" parent="1">
          <mxGeometry x="257" y="180" width="30" height="40" as="geometry" />
        </mxCell>
        <mxCell id="iPJmf6RAAdfrQKnkn_MT-17" value="7" style="text;html=1;align=center;verticalAlign=middle;whiteSpace=wrap;rounded=0;" vertex="1" parent="1">
          <mxGeometry x="257" y="240" width="32.5" height="30" as="geometry" />
        </mxCell>
        <mxCell id="iPJmf6RAAdfrQKnkn_MT-18" value="" style="rounded=0;whiteSpace=wrap;html=1;fillColor=#f8cecc;strokeColor=#b85450;" vertex="1" parent="1">
          <mxGeometry x="187" y="180" width="30" height="40" as="geometry" />
        </mxCell>
        <mxCell id="iPJmf6RAAdfrQKnkn_MT-19" value="overflow" style="text;html=1;align=center;verticalAlign=middle;whiteSpace=wrap;rounded=0;" vertex="1" parent="1">
          <mxGeometry x="187" y="240" width="32.5" height="30" as="geometry" />
        </mxCell>
        <mxCell id="iPJmf6RAAdfrQKnkn_MT-20" value="" style="endArrow=none;dashed=1;html=1;dashPattern=1 3;strokeWidth=2;rounded=0;" edge="1" parent="1">
          <mxGeometry width="50" height="50" relative="1" as="geometry">
            <mxPoint x="237" y="520" as="sourcePoint" />
            <mxPoint x="237" y="140" as="targetPoint" />
          </mxGeometry>
        </mxCell>
        <mxCell id="iPJmf6RAAdfrQKnkn_MT-21" value="0" style="rounded=0;whiteSpace=wrap;html=1;" vertex="1" parent="1">
          <mxGeometry x="604.5" y="400" width="30" height="40" as="geometry" />
        </mxCell>
        <mxCell id="iPJmf6RAAdfrQKnkn_MT-22" value="0" style="text;html=1;align=center;verticalAlign=middle;whiteSpace=wrap;rounded=0;" vertex="1" parent="1">
          <mxGeometry x="604.5" y="460" width="32.5" height="30" as="geometry" />
        </mxCell>
        <mxCell id="iPJmf6RAAdfrQKnkn_MT-23" value="0" style="rounded=0;whiteSpace=wrap;html=1;" vertex="1" parent="1">
          <mxGeometry x="554.5" y="400" width="30" height="40" as="geometry" />
        </mxCell>
        <mxCell id="iPJmf6RAAdfrQKnkn_MT-24" value="1" style="text;html=1;align=center;verticalAlign=middle;whiteSpace=wrap;rounded=0;" vertex="1" parent="1">
          <mxGeometry x="554.5" y="460" width="32.5" height="30" as="geometry" />
        </mxCell>
        <mxCell id="iPJmf6RAAdfrQKnkn_MT-25" value="0" style="rounded=0;whiteSpace=wrap;html=1;" vertex="1" parent="1">
          <mxGeometry x="504.5" y="400" width="30" height="40" as="geometry" />
        </mxCell>
        <mxCell id="iPJmf6RAAdfrQKnkn_MT-26" value="2" style="text;html=1;align=center;verticalAlign=middle;whiteSpace=wrap;rounded=0;" vertex="1" parent="1">
          <mxGeometry x="504.5" y="460" width="32.5" height="30" as="geometry" />
        </mxCell>
        <mxCell id="iPJmf6RAAdfrQKnkn_MT-27" value="0" style="rounded=0;whiteSpace=wrap;html=1;" vertex="1" parent="1">
          <mxGeometry x="454.5" y="400" width="30" height="40" as="geometry" />
        </mxCell>
        <mxCell id="iPJmf6RAAdfrQKnkn_MT-28" value="3" style="text;html=1;align=center;verticalAlign=middle;whiteSpace=wrap;rounded=0;" vertex="1" parent="1">
          <mxGeometry x="454.5" y="460" width="32.5" height="30" as="geometry" />
        </mxCell>
        <mxCell id="iPJmf6RAAdfrQKnkn_MT-29" value="0" style="rounded=0;whiteSpace=wrap;html=1;" vertex="1" parent="1">
          <mxGeometry x="404.5" y="400" width="30" height="40" as="geometry" />
        </mxCell>
        <mxCell id="iPJmf6RAAdfrQKnkn_MT-30" value="4" style="text;html=1;align=center;verticalAlign=middle;whiteSpace=wrap;rounded=0;" vertex="1" parent="1">
          <mxGeometry x="404.5" y="460" width="32.5" height="30" as="geometry" />
        </mxCell>
        <mxCell id="iPJmf6RAAdfrQKnkn_MT-31" value="0" style="rounded=0;whiteSpace=wrap;html=1;" vertex="1" parent="1">
          <mxGeometry x="354.5" y="400" width="30" height="40" as="geometry" />
        </mxCell>
        <mxCell id="iPJmf6RAAdfrQKnkn_MT-32" value="5" style="text;html=1;align=center;verticalAlign=middle;whiteSpace=wrap;rounded=0;" vertex="1" parent="1">
          <mxGeometry x="354.5" y="460" width="32.5" height="30" as="geometry" />
        </mxCell>
        <mxCell id="iPJmf6RAAdfrQKnkn_MT-33" value="0" style="rounded=0;whiteSpace=wrap;html=1;" vertex="1" parent="1">
          <mxGeometry x="304.5" y="400" width="30" height="40" as="geometry" />
        </mxCell>
        <mxCell id="iPJmf6RAAdfrQKnkn_MT-34" value="6" style="text;html=1;align=center;verticalAlign=middle;whiteSpace=wrap;rounded=0;" vertex="1" parent="1">
          <mxGeometry x="304.5" y="460" width="32.5" height="30" as="geometry" />
        </mxCell>
        <mxCell id="iPJmf6RAAdfrQKnkn_MT-35" value="0" style="rounded=0;whiteSpace=wrap;html=1;fillColor=#d5e8d4;strokeColor=#82b366;" vertex="1" parent="1">
          <mxGeometry x="254.5" y="400" width="30" height="40" as="geometry" />
        </mxCell>
        <mxCell id="iPJmf6RAAdfrQKnkn_MT-36" value="7" style="text;html=1;align=center;verticalAlign=middle;whiteSpace=wrap;rounded=0;" vertex="1" parent="1">
          <mxGeometry x="254.5" y="460" width="32.5" height="30" as="geometry" />
        </mxCell>
        <mxCell id="iPJmf6RAAdfrQKnkn_MT-37" value="1" style="rounded=0;whiteSpace=wrap;html=1;fillColor=#f8cecc;strokeColor=#b85450;" vertex="1" parent="1">
          <mxGeometry x="184.5" y="400" width="30" height="40" as="geometry" />
        </mxCell>
        <mxCell id="iPJmf6RAAdfrQKnkn_MT-38" value="overflow" style="text;html=1;align=center;verticalAlign=middle;whiteSpace=wrap;rounded=0;" vertex="1" parent="1">
          <mxGeometry x="184.5" y="460" width="32.5" height="30" as="geometry" />
        </mxCell>
        <mxCell id="iPJmf6RAAdfrQKnkn_MT-39" value="The binary representation of signed number 6, red is the over flow bit, whereas the green is the signed bit" style="text;html=1;align=center;verticalAlign=middle;whiteSpace=wrap;rounded=0;" vertex="1" parent="1">
          <mxGeometry x="10" y="170" width="140" height="80" as="geometry" />
        </mxCell>
        <mxCell id="iPJmf6RAAdfrQKnkn_MT-40" value="Result of adding the previous two numbers, the overflow bit will not be counted!" style="text;html=1;align=center;verticalAlign=middle;whiteSpace=wrap;rounded=0;" vertex="1" parent="1">
          <mxGeometry x="7.5" y="390" width="140" height="80" as="geometry" />
        </mxCell>
        <mxCell id="iPJmf6RAAdfrQKnkn_MT-41" value="0" style="rounded=0;whiteSpace=wrap;html=1;" vertex="1" parent="1">
          <mxGeometry x="604.5" y="290" width="30" height="40" as="geometry" />
        </mxCell>
        <mxCell id="iPJmf6RAAdfrQKnkn_MT-42" value="0" style="text;html=1;align=center;verticalAlign=middle;whiteSpace=wrap;rounded=0;" vertex="1" parent="1">
          <mxGeometry x="604.5" y="350" width="32.5" height="30" as="geometry" />
        </mxCell>
        <mxCell id="iPJmf6RAAdfrQKnkn_MT-43" value="1" style="rounded=0;whiteSpace=wrap;html=1;" vertex="1" parent="1">
          <mxGeometry x="554.5" y="290" width="30" height="40" as="geometry" />
        </mxCell>
        <mxCell id="iPJmf6RAAdfrQKnkn_MT-44" value="1" style="text;html=1;align=center;verticalAlign=middle;whiteSpace=wrap;rounded=0;" vertex="1" parent="1">
          <mxGeometry x="554.5" y="350" width="32.5" height="30" as="geometry" />
        </mxCell>
        <mxCell id="iPJmf6RAAdfrQKnkn_MT-45" value="0" style="rounded=0;whiteSpace=wrap;html=1;" vertex="1" parent="1">
          <mxGeometry x="504.5" y="290" width="30" height="40" as="geometry" />
        </mxCell>
        <mxCell id="iPJmf6RAAdfrQKnkn_MT-46" value="2" style="text;html=1;align=center;verticalAlign=middle;whiteSpace=wrap;rounded=0;" vertex="1" parent="1">
          <mxGeometry x="504.5" y="350" width="32.5" height="30" as="geometry" />
        </mxCell>
        <mxCell id="iPJmf6RAAdfrQKnkn_MT-47" value="1" style="rounded=0;whiteSpace=wrap;html=1;" vertex="1" parent="1">
          <mxGeometry x="454.5" y="290" width="30" height="40" as="geometry" />
        </mxCell>
        <mxCell id="iPJmf6RAAdfrQKnkn_MT-48" value="3" style="text;html=1;align=center;verticalAlign=middle;whiteSpace=wrap;rounded=0;" vertex="1" parent="1">
          <mxGeometry x="454.5" y="350" width="32.5" height="30" as="geometry" />
        </mxCell>
        <mxCell id="iPJmf6RAAdfrQKnkn_MT-49" value="1" style="rounded=0;whiteSpace=wrap;html=1;" vertex="1" parent="1">
          <mxGeometry x="404.5" y="290" width="30" height="40" as="geometry" />
        </mxCell>
        <mxCell id="iPJmf6RAAdfrQKnkn_MT-50" value="4" style="text;html=1;align=center;verticalAlign=middle;whiteSpace=wrap;rounded=0;" vertex="1" parent="1">
          <mxGeometry x="404.5" y="350" width="32.5" height="30" as="geometry" />
        </mxCell>
        <mxCell id="iPJmf6RAAdfrQKnkn_MT-51" value="1" style="rounded=0;whiteSpace=wrap;html=1;" vertex="1" parent="1">
          <mxGeometry x="354.5" y="290" width="30" height="40" as="geometry" />
        </mxCell>
        <mxCell id="iPJmf6RAAdfrQKnkn_MT-52" value="5" style="text;html=1;align=center;verticalAlign=middle;whiteSpace=wrap;rounded=0;" vertex="1" parent="1">
          <mxGeometry x="354.5" y="350" width="32.5" height="30" as="geometry" />
        </mxCell>
        <mxCell id="iPJmf6RAAdfrQKnkn_MT-53" value="1" style="rounded=0;whiteSpace=wrap;html=1;" vertex="1" parent="1">
          <mxGeometry x="304.5" y="290" width="30" height="40" as="geometry" />
        </mxCell>
        <mxCell id="iPJmf6RAAdfrQKnkn_MT-54" value="6" style="text;html=1;align=center;verticalAlign=middle;whiteSpace=wrap;rounded=0;" vertex="1" parent="1">
          <mxGeometry x="304.5" y="350" width="32.5" height="30" as="geometry" />
        </mxCell>
        <mxCell id="iPJmf6RAAdfrQKnkn_MT-55" value="1" style="rounded=0;whiteSpace=wrap;html=1;fillColor=#d5e8d4;strokeColor=#82b366;" vertex="1" parent="1">
          <mxGeometry x="254.5" y="290" width="30" height="40" as="geometry" />
        </mxCell>
        <mxCell id="iPJmf6RAAdfrQKnkn_MT-56" value="7" style="text;html=1;align=center;verticalAlign=middle;whiteSpace=wrap;rounded=0;" vertex="1" parent="1">
          <mxGeometry x="254.5" y="350" width="32.5" height="30" as="geometry" />
        </mxCell>
        <mxCell id="iPJmf6RAAdfrQKnkn_MT-57" value="" style="rounded=0;whiteSpace=wrap;html=1;fillColor=#f8cecc;strokeColor=#b85450;" vertex="1" parent="1">
          <mxGeometry x="184.5" y="290" width="30" height="40" as="geometry" />
        </mxCell>
        <mxCell id="iPJmf6RAAdfrQKnkn_MT-58" value="overflow" style="text;html=1;align=center;verticalAlign=middle;whiteSpace=wrap;rounded=0;" vertex="1" parent="1">
          <mxGeometry x="184.5" y="350" width="32.5" height="30" as="geometry" />
        </mxCell>
        <mxCell id="iPJmf6RAAdfrQKnkn_MT-59" value="The two&#39;s complement representation of signed number -6" style="text;html=1;align=center;verticalAlign=middle;whiteSpace=wrap;rounded=0;" vertex="1" parent="1">
          <mxGeometry x="7.5" y="280" width="140" height="80" as="geometry" />
        </mxCell>
      </root>
    </mxGraphModel>
  </diagram>
  <diagram id="tlMoqdrUNM84nwQuy0-T" name="Page-3">
    <mxGraphModel dx="1176" dy="686" grid="1" gridSize="10" guides="1" tooltips="1" connect="1" arrows="1" fold="1" page="1" pageScale="1" pageWidth="827" pageHeight="1169" math="0" shadow="0">
      <root>
        <mxCell id="0" />
        <mxCell id="1" parent="0" />
        <mxCell id="zg8sd_qfexoPcs0v6f_i-1" value="&lt;h1 style=&quot;margin-top: 0px;&quot;&gt;Unsigned Underflow&lt;/h1&gt;&lt;p&gt;Diagrams show an example of unsigned number 1 substracts 2 underflows to a large unsigned result!&amp;nbsp;&lt;/p&gt;" style="text;html=1;whiteSpace=wrap;overflow=hidden;rounded=0;" vertex="1" parent="1">
          <mxGeometry x="10" y="20" width="280" height="100" as="geometry" />
        </mxCell>
        <mxCell id="zg8sd_qfexoPcs0v6f_i-2" value="1" style="rounded=0;whiteSpace=wrap;html=1;" vertex="1" parent="1">
          <mxGeometry x="607" y="180" width="30" height="40" as="geometry" />
        </mxCell>
        <mxCell id="zg8sd_qfexoPcs0v6f_i-3" value="0" style="text;html=1;align=center;verticalAlign=middle;whiteSpace=wrap;rounded=0;" vertex="1" parent="1">
          <mxGeometry x="607" y="240" width="32.5" height="30" as="geometry" />
        </mxCell>
        <mxCell id="zg8sd_qfexoPcs0v6f_i-4" value="0" style="rounded=0;whiteSpace=wrap;html=1;" vertex="1" parent="1">
          <mxGeometry x="557" y="180" width="30" height="40" as="geometry" />
        </mxCell>
        <mxCell id="zg8sd_qfexoPcs0v6f_i-5" value="1" style="text;html=1;align=center;verticalAlign=middle;whiteSpace=wrap;rounded=0;" vertex="1" parent="1">
          <mxGeometry x="557" y="240" width="32.5" height="30" as="geometry" />
        </mxCell>
        <mxCell id="zg8sd_qfexoPcs0v6f_i-6" value="1" style="rounded=0;whiteSpace=wrap;html=1;" vertex="1" parent="1">
          <mxGeometry x="507" y="180" width="30" height="40" as="geometry" />
        </mxCell>
        <mxCell id="zg8sd_qfexoPcs0v6f_i-7" value="2" style="text;html=1;align=center;verticalAlign=middle;whiteSpace=wrap;rounded=0;" vertex="1" parent="1">
          <mxGeometry x="507" y="240" width="32.5" height="30" as="geometry" />
        </mxCell>
        <mxCell id="zg8sd_qfexoPcs0v6f_i-8" value="0" style="rounded=0;whiteSpace=wrap;html=1;" vertex="1" parent="1">
          <mxGeometry x="457" y="180" width="30" height="40" as="geometry" />
        </mxCell>
        <mxCell id="zg8sd_qfexoPcs0v6f_i-9" value="3" style="text;html=1;align=center;verticalAlign=middle;whiteSpace=wrap;rounded=0;" vertex="1" parent="1">
          <mxGeometry x="457" y="240" width="32.5" height="30" as="geometry" />
        </mxCell>
        <mxCell id="zg8sd_qfexoPcs0v6f_i-10" value="0" style="rounded=0;whiteSpace=wrap;html=1;" vertex="1" parent="1">
          <mxGeometry x="407" y="180" width="30" height="40" as="geometry" />
        </mxCell>
        <mxCell id="zg8sd_qfexoPcs0v6f_i-11" value="4" style="text;html=1;align=center;verticalAlign=middle;whiteSpace=wrap;rounded=0;" vertex="1" parent="1">
          <mxGeometry x="407" y="240" width="32.5" height="30" as="geometry" />
        </mxCell>
        <mxCell id="zg8sd_qfexoPcs0v6f_i-12" value="0" style="rounded=0;whiteSpace=wrap;html=1;" vertex="1" parent="1">
          <mxGeometry x="357" y="180" width="30" height="40" as="geometry" />
        </mxCell>
        <mxCell id="zg8sd_qfexoPcs0v6f_i-13" value="5" style="text;html=1;align=center;verticalAlign=middle;whiteSpace=wrap;rounded=0;" vertex="1" parent="1">
          <mxGeometry x="357" y="240" width="32.5" height="30" as="geometry" />
        </mxCell>
        <mxCell id="zg8sd_qfexoPcs0v6f_i-14" value="0" style="rounded=0;whiteSpace=wrap;html=1;" vertex="1" parent="1">
          <mxGeometry x="307" y="180" width="30" height="40" as="geometry" />
        </mxCell>
        <mxCell id="zg8sd_qfexoPcs0v6f_i-15" value="6" style="text;html=1;align=center;verticalAlign=middle;whiteSpace=wrap;rounded=0;" vertex="1" parent="1">
          <mxGeometry x="307" y="240" width="32.5" height="30" as="geometry" />
        </mxCell>
        <mxCell id="zg8sd_qfexoPcs0v6f_i-16" value="0" style="rounded=0;whiteSpace=wrap;html=1;fillColor=#d5e8d4;strokeColor=#82b366;" vertex="1" parent="1">
          <mxGeometry x="257" y="180" width="30" height="40" as="geometry" />
        </mxCell>
        <mxCell id="zg8sd_qfexoPcs0v6f_i-17" value="7" style="text;html=1;align=center;verticalAlign=middle;whiteSpace=wrap;rounded=0;" vertex="1" parent="1">
          <mxGeometry x="257" y="240" width="32.5" height="30" as="geometry" />
        </mxCell>
        <mxCell id="zg8sd_qfexoPcs0v6f_i-18" value="" style="rounded=0;whiteSpace=wrap;html=1;fillColor=#f8cecc;strokeColor=#b85450;" vertex="1" parent="1">
          <mxGeometry x="187" y="180" width="30" height="40" as="geometry" />
        </mxCell>
        <mxCell id="zg8sd_qfexoPcs0v6f_i-19" value="overflow" style="text;html=1;align=center;verticalAlign=middle;whiteSpace=wrap;rounded=0;" vertex="1" parent="1">
          <mxGeometry x="187" y="240" width="32.5" height="30" as="geometry" />
        </mxCell>
        <mxCell id="zg8sd_qfexoPcs0v6f_i-20" value="" style="endArrow=none;dashed=1;html=1;dashPattern=1 3;strokeWidth=2;rounded=0;" edge="1" parent="1">
          <mxGeometry width="50" height="50" relative="1" as="geometry">
            <mxPoint x="237" y="520" as="sourcePoint" />
            <mxPoint x="237" y="140" as="targetPoint" />
          </mxGeometry>
        </mxCell>
        <mxCell id="zg8sd_qfexoPcs0v6f_i-21" value="1" style="rounded=0;whiteSpace=wrap;html=1;" vertex="1" parent="1">
          <mxGeometry x="604.5" y="400" width="30" height="40" as="geometry" />
        </mxCell>
        <mxCell id="zg8sd_qfexoPcs0v6f_i-22" value="0" style="text;html=1;align=center;verticalAlign=middle;whiteSpace=wrap;rounded=0;" vertex="1" parent="1">
          <mxGeometry x="604.5" y="460" width="32.5" height="30" as="geometry" />
        </mxCell>
        <mxCell id="zg8sd_qfexoPcs0v6f_i-23" value="1" style="rounded=0;whiteSpace=wrap;html=1;" vertex="1" parent="1">
          <mxGeometry x="554.5" y="400" width="30" height="40" as="geometry" />
        </mxCell>
        <mxCell id="zg8sd_qfexoPcs0v6f_i-24" value="1" style="text;html=1;align=center;verticalAlign=middle;whiteSpace=wrap;rounded=0;" vertex="1" parent="1">
          <mxGeometry x="554.5" y="460" width="32.5" height="30" as="geometry" />
        </mxCell>
        <mxCell id="zg8sd_qfexoPcs0v6f_i-25" value="1" style="rounded=0;whiteSpace=wrap;html=1;" vertex="1" parent="1">
          <mxGeometry x="504.5" y="400" width="30" height="40" as="geometry" />
        </mxCell>
        <mxCell id="zg8sd_qfexoPcs0v6f_i-26" value="2" style="text;html=1;align=center;verticalAlign=middle;whiteSpace=wrap;rounded=0;" vertex="1" parent="1">
          <mxGeometry x="504.5" y="460" width="32.5" height="30" as="geometry" />
        </mxCell>
        <mxCell id="zg8sd_qfexoPcs0v6f_i-27" value="1" style="rounded=0;whiteSpace=wrap;html=1;" vertex="1" parent="1">
          <mxGeometry x="454.5" y="400" width="30" height="40" as="geometry" />
        </mxCell>
        <mxCell id="zg8sd_qfexoPcs0v6f_i-28" value="3" style="text;html=1;align=center;verticalAlign=middle;whiteSpace=wrap;rounded=0;" vertex="1" parent="1">
          <mxGeometry x="454.5" y="460" width="32.5" height="30" as="geometry" />
        </mxCell>
        <mxCell id="zg8sd_qfexoPcs0v6f_i-29" value="1" style="rounded=0;whiteSpace=wrap;html=1;" vertex="1" parent="1">
          <mxGeometry x="404.5" y="400" width="30" height="40" as="geometry" />
        </mxCell>
        <mxCell id="zg8sd_qfexoPcs0v6f_i-30" value="4" style="text;html=1;align=center;verticalAlign=middle;whiteSpace=wrap;rounded=0;" vertex="1" parent="1">
          <mxGeometry x="404.5" y="460" width="32.5" height="30" as="geometry" />
        </mxCell>
        <mxCell id="zg8sd_qfexoPcs0v6f_i-31" value="1" style="rounded=0;whiteSpace=wrap;html=1;" vertex="1" parent="1">
          <mxGeometry x="354.5" y="400" width="30" height="40" as="geometry" />
        </mxCell>
        <mxCell id="zg8sd_qfexoPcs0v6f_i-32" value="5" style="text;html=1;align=center;verticalAlign=middle;whiteSpace=wrap;rounded=0;" vertex="1" parent="1">
          <mxGeometry x="354.5" y="460" width="32.5" height="30" as="geometry" />
        </mxCell>
        <mxCell id="zg8sd_qfexoPcs0v6f_i-33" value="1" style="rounded=0;whiteSpace=wrap;html=1;" vertex="1" parent="1">
          <mxGeometry x="304.5" y="400" width="30" height="40" as="geometry" />
        </mxCell>
        <mxCell id="zg8sd_qfexoPcs0v6f_i-34" value="6" style="text;html=1;align=center;verticalAlign=middle;whiteSpace=wrap;rounded=0;" vertex="1" parent="1">
          <mxGeometry x="304.5" y="460" width="32.5" height="30" as="geometry" />
        </mxCell>
        <mxCell id="zg8sd_qfexoPcs0v6f_i-35" value="1" style="rounded=0;whiteSpace=wrap;html=1;fillColor=#d5e8d4;strokeColor=#82b366;" vertex="1" parent="1">
          <mxGeometry x="254.5" y="400" width="30" height="40" as="geometry" />
        </mxCell>
        <mxCell id="zg8sd_qfexoPcs0v6f_i-36" value="7" style="text;html=1;align=center;verticalAlign=middle;whiteSpace=wrap;rounded=0;" vertex="1" parent="1">
          <mxGeometry x="254.5" y="460" width="32.5" height="30" as="geometry" />
        </mxCell>
        <mxCell id="zg8sd_qfexoPcs0v6f_i-37" value="" style="rounded=0;whiteSpace=wrap;html=1;fillColor=#f8cecc;strokeColor=#b85450;" vertex="1" parent="1">
          <mxGeometry x="184.5" y="400" width="30" height="40" as="geometry" />
        </mxCell>
        <mxCell id="zg8sd_qfexoPcs0v6f_i-38" value="overflow" style="text;html=1;align=center;verticalAlign=middle;whiteSpace=wrap;rounded=0;" vertex="1" parent="1">
          <mxGeometry x="184.5" y="460" width="32.5" height="30" as="geometry" />
        </mxCell>
        <mxCell id="zg8sd_qfexoPcs0v6f_i-39" value="unsigned number 5" style="text;html=1;align=center;verticalAlign=middle;whiteSpace=wrap;rounded=0;" vertex="1" parent="1">
          <mxGeometry x="10" y="170" width="140" height="80" as="geometry" />
        </mxCell>
        <mxCell id="zg8sd_qfexoPcs0v6f_i-40" value="Result is a large unsigned number 255" style="text;html=1;align=center;verticalAlign=middle;whiteSpace=wrap;rounded=0;" vertex="1" parent="1">
          <mxGeometry x="7.5" y="390" width="140" height="80" as="geometry" />
        </mxCell>
        <mxCell id="zg8sd_qfexoPcs0v6f_i-41" value="0" style="rounded=0;whiteSpace=wrap;html=1;" vertex="1" parent="1">
          <mxGeometry x="604.5" y="290" width="30" height="40" as="geometry" />
        </mxCell>
        <mxCell id="zg8sd_qfexoPcs0v6f_i-42" value="0" style="text;html=1;align=center;verticalAlign=middle;whiteSpace=wrap;rounded=0;" vertex="1" parent="1">
          <mxGeometry x="604.5" y="350" width="32.5" height="30" as="geometry" />
        </mxCell>
        <mxCell id="zg8sd_qfexoPcs0v6f_i-43" value="1" style="rounded=0;whiteSpace=wrap;html=1;" vertex="1" parent="1">
          <mxGeometry x="554.5" y="290" width="30" height="40" as="geometry" />
        </mxCell>
        <mxCell id="zg8sd_qfexoPcs0v6f_i-44" value="1" style="text;html=1;align=center;verticalAlign=middle;whiteSpace=wrap;rounded=0;" vertex="1" parent="1">
          <mxGeometry x="554.5" y="350" width="32.5" height="30" as="geometry" />
        </mxCell>
        <mxCell id="zg8sd_qfexoPcs0v6f_i-45" value="0" style="rounded=0;whiteSpace=wrap;html=1;" vertex="1" parent="1">
          <mxGeometry x="504.5" y="290" width="30" height="40" as="geometry" />
        </mxCell>
        <mxCell id="zg8sd_qfexoPcs0v6f_i-46" value="2" style="text;html=1;align=center;verticalAlign=middle;whiteSpace=wrap;rounded=0;" vertex="1" parent="1">
          <mxGeometry x="504.5" y="350" width="32.5" height="30" as="geometry" />
        </mxCell>
        <mxCell id="zg8sd_qfexoPcs0v6f_i-47" value="1" style="rounded=0;whiteSpace=wrap;html=1;" vertex="1" parent="1">
          <mxGeometry x="454.5" y="290" width="30" height="40" as="geometry" />
        </mxCell>
        <mxCell id="zg8sd_qfexoPcs0v6f_i-48" value="3" style="text;html=1;align=center;verticalAlign=middle;whiteSpace=wrap;rounded=0;" vertex="1" parent="1">
          <mxGeometry x="454.5" y="350" width="32.5" height="30" as="geometry" />
        </mxCell>
        <mxCell id="zg8sd_qfexoPcs0v6f_i-49" value="1" style="rounded=0;whiteSpace=wrap;html=1;" vertex="1" parent="1">
          <mxGeometry x="404.5" y="290" width="30" height="40" as="geometry" />
        </mxCell>
        <mxCell id="zg8sd_qfexoPcs0v6f_i-50" value="4" style="text;html=1;align=center;verticalAlign=middle;whiteSpace=wrap;rounded=0;" vertex="1" parent="1">
          <mxGeometry x="404.5" y="350" width="32.5" height="30" as="geometry" />
        </mxCell>
        <mxCell id="zg8sd_qfexoPcs0v6f_i-51" value="1" style="rounded=0;whiteSpace=wrap;html=1;" vertex="1" parent="1">
          <mxGeometry x="354.5" y="290" width="30" height="40" as="geometry" />
        </mxCell>
        <mxCell id="zg8sd_qfexoPcs0v6f_i-52" value="5" style="text;html=1;align=center;verticalAlign=middle;whiteSpace=wrap;rounded=0;" vertex="1" parent="1">
          <mxGeometry x="354.5" y="350" width="32.5" height="30" as="geometry" />
        </mxCell>
        <mxCell id="zg8sd_qfexoPcs0v6f_i-53" value="1" style="rounded=0;whiteSpace=wrap;html=1;" vertex="1" parent="1">
          <mxGeometry x="304.5" y="290" width="30" height="40" as="geometry" />
        </mxCell>
        <mxCell id="zg8sd_qfexoPcs0v6f_i-54" value="6" style="text;html=1;align=center;verticalAlign=middle;whiteSpace=wrap;rounded=0;" vertex="1" parent="1">
          <mxGeometry x="304.5" y="350" width="32.5" height="30" as="geometry" />
        </mxCell>
        <mxCell id="zg8sd_qfexoPcs0v6f_i-55" value="1" style="rounded=0;whiteSpace=wrap;html=1;fillColor=#d5e8d4;strokeColor=#82b366;" vertex="1" parent="1">
          <mxGeometry x="254.5" y="290" width="30" height="40" as="geometry" />
        </mxCell>
        <mxCell id="zg8sd_qfexoPcs0v6f_i-56" value="7" style="text;html=1;align=center;verticalAlign=middle;whiteSpace=wrap;rounded=0;" vertex="1" parent="1">
          <mxGeometry x="254.5" y="350" width="32.5" height="30" as="geometry" />
        </mxCell>
        <mxCell id="zg8sd_qfexoPcs0v6f_i-57" value="" style="rounded=0;whiteSpace=wrap;html=1;fillColor=#f8cecc;strokeColor=#b85450;" vertex="1" parent="1">
          <mxGeometry x="184.5" y="290" width="30" height="40" as="geometry" />
        </mxCell>
        <mxCell id="zg8sd_qfexoPcs0v6f_i-58" value="overflow" style="text;html=1;align=center;verticalAlign=middle;whiteSpace=wrap;rounded=0;" vertex="1" parent="1">
          <mxGeometry x="184.5" y="350" width="32.5" height="30" as="geometry" />
        </mxCell>
        <mxCell id="zg8sd_qfexoPcs0v6f_i-59" value="The two&#39;s complement representation of signed number -6" style="text;html=1;align=center;verticalAlign=middle;whiteSpace=wrap;rounded=0;" vertex="1" parent="1">
          <mxGeometry x="7.5" y="280" width="140" height="80" as="geometry" />
        </mxCell>
      </root>
    </mxGraphModel>
  </diagram>
</mxfile>
